<svg xmlns="http://www.w3.org/2000/svg" width="44" height="44" viewBox="0 0 44 44">
  <g id="Group_9678" data-name="Group 9678" transform="translate(-12694 8626)">
    <circle id="Ellipse_1339" data-name="Ellipse 1339" cx="22" cy="22" r="22" transform="translate(12694 -8626)" fill="#fff"/>
    <g id="edit_black_24dp" transform="translate(12704 -8616)">
      <path id="Path_10720" data-name="Path 10720" d="M0,0H24V24H0Z" fill="none"/>
      <path id="Path_10721" data-name="Path 10721" d="M14.06,9.02l.92.92L5.92,19H5v-.92l9.06-9.06M17.66,3a1,1,0,0,0-.7.29L15.13,5.12l3.75,3.75,1.83-1.83a1,1,0,0,0,0-1.41L18.37,3.29A.982.982,0,0,0,17.66,3Zm-3.6,3.19L3,17.25V21H6.75L17.81,9.94,14.06,6.19Z"/>
    </g>
  </g>
</svg>
