<svg id="Iconly_Light-outline_2_User" data-name="Iconly/Light-outline/2 User" xmlns="http://www.w3.org/2000/svg" width="24" height="24" viewBox="0 0 24 24">
  <rect id="Iconly_Light-outline_2_User_Background_" data-name="Iconly/Light-outline/2 User (Background)" width="24" height="24" fill="none"/>
  <g id="_2_User" data-name="2 User" transform="translate(2 2.5)">
    <path id="_2_User-2" data-name="2 User" d="M0,15.519a2.861,2.861,0,0,1,1.983-2.765,14.709,14.709,0,0,1,5.608-.8l.32,0a13.909,13.909,0,0,1,5.378.824,2.9,2.9,0,0,1,.08,5.4,12.965,12.965,0,0,1-5.145.868l-.633.005C2.341,19.06,0,17.968,0,15.519Zm3.039-1.54c-1.021.346-1.539.864-1.539,1.54,0,1.355,2.049,2.042,6.09,2.042,3.985,0,6.092-.713,6.092-2.062s-2.049-2.042-6.092-2.042A15.1,15.1,0,0,0,3.039,13.979Zm13.379,1.978A.75.75,0,0,1,17,15.071c.769-.158,1.281-.415,1.418-.706a.819.819,0,0,0,0-.7c-.139-.293-.654-.549-1.43-.7a10.178,10.178,0,0,0-1.507-.217.75.75,0,0,1,.1-1.5,11.532,11.532,0,0,1,1.712.246,3.178,3.178,0,0,1,2.476,1.526,2.319,2.319,0,0,1,0,1.989A3.185,3.185,0,0,1,17.3,16.54a.75.75,0,0,1-.886-.583ZM3.956,8.77a5.156,5.156,0,0,1,0-7.27,5.135,5.135,0,0,1,8.77,3.634A5.141,5.141,0,0,1,3.956,8.77Zm0-3.636A3.634,3.634,0,1,0,7.591,1.5,3.638,3.638,0,0,0,3.957,5.134Zm9.312,3.28a.75.75,0,0,1,.75-.75,2.547,2.547,0,1,0,0-5.094.75.75,0,0,1,0-1.5,4.047,4.047,0,1,1,0,8.095A.75.75,0,0,1,13.27,8.413Z" fill="#064c87"/>
  </g>
</svg>
