<svg id="verified_black_24dp" xmlns="http://www.w3.org/2000/svg" width="17" height="17" viewBox="0 0 17 17">
  <g id="Group_11795" data-name="Group 11795">
    <rect id="Rectangle_4451" data-name="Rectangle 4451" width="17" height="17" fill="none"/>
  </g>
  <g id="Group_11797" data-name="Group 11797" transform="translate(0.708 1.063)">
    <g id="Group_11796" data-name="Group 11796">
      <path id="Path_13694" data-name="Path 13694" d="M16.583,8.93,14.855,6.954,15.1,4.34,12.539,3.76,11.2,1.5,8.792,2.534,6.383,1.5,5.045,3.76l-2.557.574.241,2.621L1,8.93l1.728,1.976-.241,2.621,2.557.581,1.339,2.267,2.408-1.041L11.2,16.368l1.339-2.26,2.557-.581-.241-2.614Zm-2.8,1.048-.4.46.057.6.128,1.381-1.346.3-.595.135-.312.524-.7,1.19L9.358,14.03l-.567-.241-.56.241-1.261.545-.7-1.183-.312-.524-.595-.135-1.346-.3.128-1.388.057-.6-.4-.46L2.891,8.938l.914-1.048.4-.46L4.138,6.82,4.01,5.445l1.346-.3.6-.135.312-.524.7-1.19,1.261.545.567.241.56-.241,1.261-.545.7,1.19.312.524.595.135,1.346.3-.128,1.381-.057.6.4.46.914,1.041Z" transform="translate(-1 -1.5)" fill="#064c87"/>
      <path id="Path_13695" data-name="Path 13695" d="M8.982,12.035l-1.643-1.65L6.29,11.44l2.692,2.7,5.2-5.213L13.132,7.87Z" transform="translate(-2.543 -3.358)" fill="#064c87"/>
    </g>
  </g>
</svg>
